<svg width="200" height="200" viewBox="0 0 200 200" fill="none" xmlns="http://www.w3.org/2000/svg">
  <defs>
    <!-- Chinese-inspired gradients -->
    <linearGradient id="redGold" x1="0" y1="0" x2="1" y2="1">
      <stop offset="0%" stop-color="#DC2626"/>
      <stop offset="50%" stop-color="#F59E0B"/>
      <stop offset="100%" stop-color="#DC2626"/>
    </linearGradient>
    <linearGradient id="jade" x1="0" y1="0" x2="0" y2="1">
      <stop offset="0%" stop-color="#10B981"/>
      <stop offset="100%" stop-color="#047857"/>
    </linearGradient>
    <radialGradient id="goldShine">
      <stop offset="0%" stop-color="#FCD34D"/>
      <stop offset="100%" stop-color="#F59E0B"/>
    </radialGradient>
    <!-- Decorative pattern -->
    <pattern id="cloudPattern" x="0" y="0" width="40" height="40" patternUnits="userSpaceOnUse">
      <path d="M5,20 Q10,10 20,15 T35,20" stroke="#DC2626" stroke-width="1" fill="none" opacity="0.3"/>
    </pattern>
    <filter id="goldGlow">
      <feGaussianBlur stdDeviation="3"/>
      <feComponentTransfer>
        <feFuncA type="discrete" tableValues="0 .5 .5 .5 .5 .5 .5 .5 .5 .5 .5 .5 .5 .5 .5 .5 1"/>
      </feComponentTransfer>
    </filter>
    <filter id="shadow">
      <feDropShadow dx="2" dy="4" stdDeviation="4" flood-color="#000" flood-opacity="0.3"/>
    </filter>
  </defs>
  
  <!-- Background circle with Chinese pattern -->
  <circle cx="100" cy="100" r="88" fill="#FEF3C7" stroke="url(#redGold)" stroke-width="4"/>
  <circle cx="100" cy="100" r="88" fill="url(#cloudPattern)" opacity="0.5"/>
  
  <!-- Decorative corner elements -->
  <g opacity="0.7">
    <path d="M30,30 Q40,20 50,30" stroke="url(#redGold)" stroke-width="2" fill="none"/>
    <path d="M170,30 Q160,20 150,30" stroke="url(#redGold)" stroke-width="2" fill="none"/>
    <path d="M30,170 Q40,180 50,170" stroke="url(#redGold)" stroke-width="2" fill="none"/>
    <path d="M170,170 Q160,180 150,170" stroke="url(#redGold)" stroke-width="2" fill="none"/>
  </g>
  
  <!-- Main A with calligraphy style -->
  <g filter="url(#shadow)">
    <!-- Left stroke with varying width -->
    <path d="M60 155 Q65 150 70 140 L95 55 Q100 40 105 45" 
          stroke="url(#redGold)" 
          stroke-width="3" 
          fill="url(#redGold)" 
          stroke-linejoin="round"/>
    <path d="M70 140 L95 55" 
          stroke="url(#redGold)" 
          stroke-width="18" 
          stroke-linecap="round"/>
    
    <!-- Right stroke with varying width -->
    <path d="M140 155 Q135 150 130 140 L105 55 Q100 40 95 45" 
          stroke="url(#redGold)" 
          stroke-width="3" 
          fill="url(#redGold)" 
          stroke-linejoin="round"/>
    <path d="M130 140 L105 55" 
          stroke="url(#redGold)" 
          stroke-width="18" 
          stroke-linecap="round"/>
    
    <!-- Decorative top flourish -->
    <circle cx="100" cy="45" r="8" fill="url(#goldShine)" filter="url(#goldGlow)"/>
    
    <!-- Crossbar with Chinese knot pattern -->
    <g transform="translate(100, 110)">
      <rect x="-25" y="-6" width="50" height="12" rx="6" fill="url(#goldShine)"/>
      <circle cx="-20" cy="0" r="4" fill="none" stroke="#DC2626" stroke-width="1.5"/>
      <circle cx="20" cy="0" r="4" fill="none" stroke="#DC2626" stroke-width="1.5"/>
      <path d="M-16,0 L16,0" stroke="#DC2626" stroke-width="1.5"/>
    </g>
  </g>
  
  <!-- Small decorative seal stamp in corner -->
  <g transform="translate(160, 40)">
    <rect x="-12" y="-12" width="24" height="24" rx="2" fill="url(#redGold)" opacity="0.8"/>
    <text x="0" y="5" text-anchor="middle" font-family="serif" font-size="16" fill="#FEF3C7">印</text>
  </g>
  
  <!-- Bottom decorative swirls -->
  <g opacity="0.6">
    <path d="M60,165 Q70,170 75,165 T85,165" stroke="url(#jade)" stroke-width="2" fill="none"/>
    <path d="M115,165 Q125,170 130,165 T140,165" stroke="url(#jade)" stroke-width="2" fill="none"/>
  </g>
</svg>